<?xml version="1.0" encoding="utf-8"?>
<!-- Generator: Adobe Illustrator 16.0.0, SVG Export Plug-In . SVG Version: 6.00 Build 0)  -->
<!DOCTYPE svg PUBLIC "-//W3C//DTD SVG 1.1//EN" "http://www.w3.org/Graphics/SVG/1.1/DTD/svg11.dtd">
<svg version="1.1" id="icons" xmlns="http://www.w3.org/2000/svg" xmlns:xlink="http://www.w3.org/1999/xlink" x="0px" y="0px"
	 width="64px" height="64px" viewBox="0 0 64 64" enable-background="new 0 0 64 64" xml:space="preserve">
<g>
	<path fill="#545C66" d="M20.996,52.998H6.998c-0.553,0-1-0.447-1-1V49c0-0.553,0.447-1,1-1h13.998c0.553,0,1,0.447,1,1v2.998
		C21.996,52.551,21.549,52.998,20.996,52.998z M7.998,50.998h11.998V50H7.998V50.998z"/>
	<path fill="#545C66" d="M57.002,52.998H43.004c-0.553,0-1-0.447-1-1V49c0-0.553,0.447-1,1-1h13.998c0.553,0,1,0.447,1,1v2.998
		C58.002,52.551,57.555,52.998,57.002,52.998z M44.004,50.998h11.998V50H44.004V50.998z"/>
	<path fill="#545C66" d="M39.014,52.998H25.016c-0.553,0-1-0.447-1-1V49c0-0.553,0.447-1,1-1h13.998c0.553,0,1,0.447,1,1v2.998
		C40.014,52.551,39.566,52.998,39.014,52.998z M26.016,50.998h11.998V50H26.016V50.998z"/>
	<path fill="#5D9CEC" d="M32,15h-3v4h-4v26.99h-4V29h-9v16.99H6V27C6,12.65,17.64,1,32,1s26,11.65,26,26v18.99h-6V29h-9v16.99h-4V19
		h-4v-4H32z"/>
	<g>
		<path fill="#656D78" d="M32,15.996c-0.553,0-1-0.447-1-1V9.998c0-0.553,0.447-1,1-1s1,0.447,1,1v4.998
			C33,15.549,32.553,15.996,32,15.996z"/>
	</g>
	<rect x="25.02" y="49" fill="#545C66" width="13.99" height="3"/>
	<rect x="7" y="49" fill="#545C66" width="14" height="3"/>
	<rect x="43" y="29" fill="#E6E9ED" width="9" height="16.99"/>
	<polygon fill="#CCD1D9" points="35,15 35,19 29,19 29,15 32,15 	"/>
	<rect x="43" y="49" fill="#545C66" width="14" height="3"/>
	<polygon fill="#E6E9ED" points="39,19 39,45.99 25,45.99 25,19 29,19 35,19 	"/>
	<rect x="12" y="29" fill="#E6E9ED" width="9" height="16.99"/>
	<g>
		<path fill="#E6E9ED" d="M25,46.986c-0.553,0-1-0.447-1-1v-26.99c0-0.553,0.447-1,1-1s1,0.447,1,1v26.99
			C26,46.539,25.553,46.986,25,46.986z"/>
	</g>
	<g>
		<path fill="#E6E9ED" d="M39,46.986c-0.553,0-1-0.447-1-1v-26.99c0-0.553,0.447-1,1-1s1,0.447,1,1v26.99
			C40,46.539,39.553,46.986,39,46.986z"/>
	</g>
	<g>
		<path fill="#CCD1D9" d="M29,19.996c-0.553,0-1-0.447-1-1v-4c0-0.553,0.447-1,1-1s1,0.447,1,1v4C30,19.549,29.553,19.996,29,19.996
			z"/>
	</g>
	<g>
		<path fill="#CCD1D9" d="M35,15.996h-6c-0.553,0-1-0.447-1-1s0.447-1,1-1h6c0.553,0,1,0.447,1,1S35.553,15.996,35,15.996z"/>
	</g>
	<g>
		<path fill="#CCD1D9" d="M35,19.996c-0.553,0-1-0.447-1-1v-4c0-0.553,0.447-1,1-1s1,0.447,1,1v4C36,19.549,35.553,19.996,35,19.996
			z"/>
	</g>
	<g>
		<path fill="#E6E9ED" d="M39,19.996H25c-0.553,0-1-0.447-1-1s0.447-1,1-1h14c0.553,0,1,0.447,1,1S39.553,19.996,39,19.996z"/>
	</g>
	<g>
		<path fill="#CCD1D9" d="M30,41.986c-0.553,0-1-0.447-1-1v-16.99c0-0.553,0.447-1,1-1s1,0.447,1,1v16.99
			C31,41.539,30.553,41.986,30,41.986z"/>
	</g>
	<g>
		<path fill="#CCD1D9" d="M34,41.986c-0.553,0-1-0.447-1-1v-16.99c0-0.553,0.447-1,1-1s1,0.447,1,1v16.99
			C35,41.539,34.553,41.986,34,41.986z"/>
	</g>
	<g>
		<path fill="#E6E9ED" d="M43,46.986c-0.553,0-1-0.447-1-1V28.992c0-0.553,0.447-1,1-1s1,0.447,1,1v16.994
			C44,46.539,43.553,46.986,43,46.986z"/>
	</g>
	<g>
		<path fill="#E6E9ED" d="M52,29.992h-9c-0.553,0-1-0.447-1-1s0.447-1,1-1h9c0.553,0,1,0.447,1,1S52.553,29.992,52,29.992z"/>
	</g>
	<g>
		<path fill="#E6E9ED" d="M52,46.986c-0.553,0-1-0.447-1-1V28.992c0-0.553,0.447-1,1-1s1,0.447,1,1v16.994
			C53,46.539,52.553,46.986,52,46.986z"/>
	</g>
	<g>
		<path fill="#CCD1D9" d="M49,33.986h-3c-0.553,0-1-0.447-1-1s0.447-1,1-1h3c0.553,0,1,0.447,1,1S49.553,33.986,49,33.986z"/>
	</g>
	<g>
		<path fill="#CCD1D9" d="M49,37.986h-3c-0.553,0-1-0.447-1-1s0.447-1,1-1h3c0.553,0,1,0.447,1,1S49.553,37.986,49,37.986z"/>
	</g>
	<g>
		<path fill="#CCD1D9" d="M49,41.986h-3c-0.553,0-1-0.447-1-1s0.447-1,1-1h3c0.553,0,1,0.447,1,1S49.553,41.986,49,41.986z"/>
	</g>
	<g>
		<path fill="#E6E9ED" d="M12,46.986c-0.553,0-1-0.447-1-1V28.992c0-0.553,0.447-1,1-1s1,0.447,1,1v16.994
			C13,46.539,12.553,46.986,12,46.986z"/>
	</g>
	<g>
		<path fill="#E6E9ED" d="M21,29.992h-9c-0.553,0-1-0.447-1-1s0.447-1,1-1h9c0.553,0,1,0.447,1,1S21.553,29.992,21,29.992z"/>
	</g>
	<g>
		<path fill="#E6E9ED" d="M21,46.986c-0.553,0-1-0.447-1-1V28.992c0-0.553,0.447-1,1-1s1,0.447,1,1v16.994
			C22,46.539,21.553,46.986,21,46.986z"/>
	</g>
	<g>
		<path fill="#CCD1D9" d="M18,33.986h-3c-0.553,0-1-0.447-1-1s0.447-1,1-1h3c0.553,0,1,0.447,1,1S18.553,33.986,18,33.986z"/>
	</g>
	<g>
		<path fill="#CCD1D9" d="M18,37.986h-3c-0.553,0-1-0.447-1-1s0.447-1,1-1h3c0.553,0,1,0.447,1,1S18.553,37.986,18,37.986z"/>
	</g>
	<g>
		<path fill="#CCD1D9" d="M18,41.986h-3c-0.553,0-1-0.447-1-1s0.447-1,1-1h3c0.553,0,1,0.447,1,1S18.553,41.986,18,41.986z"/>
	</g>
	<path fill="#E6E9ED" d="M13.997,63c-0.553,0-1-0.447-1-1v-6.875c0-0.553,0.447-1,1-1s1,0.447,1,1V62
		C14.997,62.553,14.55,63,13.997,63z"/>
	<path fill="#E6E9ED" d="M16.997,59.998c-0.553,0-1-0.447-1-1V55c0-0.553,0.447-1,1-1s1,0.447,1,1v3.998
		C17.997,59.551,17.55,59.998,16.997,59.998z"/>
	<path fill="#E6E9ED" d="M10.997,59.998c-0.553,0-1-0.447-1-1V55c0-0.553,0.447-1,1-1s1,0.447,1,1v3.998
		C11.997,59.551,11.55,59.998,10.997,59.998z"/>
	<path fill="#E6E9ED" d="M19.997,56.998c-0.553,0-1-0.447-1-1V55c0-0.553,0.447-1,1-1s1,0.447,1,1v0.998
		C20.997,56.551,20.55,56.998,19.997,56.998z"/>
	<path fill="#E6E9ED" d="M7.997,56.998c-0.553,0-1-0.447-1-1V55c0-0.553,0.447-1,1-1s1,0.447,1,1v0.998
		C8.997,56.551,8.55,56.998,7.997,56.998z"/>
	<path fill="#E6E9ED" d="M32.015,63c-0.553,0-1-0.447-1-1v-6.875c0-0.553,0.447-1,1-1s1,0.447,1,1V62
		C33.015,62.553,32.567,63,32.015,63z"/>
	<path fill="#E6E9ED" d="M35.015,59.998c-0.553,0-1-0.447-1-1V55c0-0.553,0.447-1,1-1s1,0.447,1,1v3.998
		C36.015,59.551,35.567,59.998,35.015,59.998z"/>
	<path fill="#E6E9ED" d="M29.015,59.998c-0.553,0-1-0.447-1-1V55c0-0.553,0.447-1,1-1s1,0.447,1,1v3.998
		C30.015,59.551,29.567,59.998,29.015,59.998z"/>
	<path fill="#E6E9ED" d="M38.015,56.998c-0.553,0-1-0.447-1-1V55c0-0.553,0.447-1,1-1s1,0.447,1,1v0.998
		C39.015,56.551,38.567,56.998,38.015,56.998z"/>
	<path fill="#E6E9ED" d="M26.015,56.998c-0.553,0-1-0.447-1-1V55c0-0.553,0.447-1,1-1s1,0.447,1,1v0.998
		C27.015,56.551,26.567,56.998,26.015,56.998z"/>
	<path fill="#E6E9ED" d="M50.003,63c-0.553,0-1-0.447-1-1v-6.875c0-0.553,0.447-1,1-1s1,0.447,1,1V62
		C51.003,62.553,50.556,63,50.003,63z"/>
	<path fill="#E6E9ED" d="M53.003,59.998c-0.553,0-1-0.447-1-1V55c0-0.553,0.447-1,1-1s1,0.447,1,1v3.998
		C54.003,59.551,53.556,59.998,53.003,59.998z"/>
	<path fill="#E6E9ED" d="M47.003,59.998c-0.553,0-1-0.447-1-1V55c0-0.553,0.447-1,1-1s1,0.447,1,1v3.998
		C48.003,59.551,47.556,59.998,47.003,59.998z"/>
	<path fill="#E6E9ED" d="M56.003,56.998c-0.553,0-1-0.447-1-1V55c0-0.553,0.447-1,1-1s1,0.447,1,1v0.998
		C57.003,56.551,56.556,56.998,56.003,56.998z"/>
	<path fill="#E6E9ED" d="M44.003,56.998c-0.553,0-1-0.447-1-1V55c0-0.553,0.447-1,1-1s1,0.447,1,1v0.998
		C45.003,56.551,44.556,56.998,44.003,56.998z"/>
	<path fill="#656D78" d="M60,47.99v2H4v-2.25c0-1.109,0.89-1.75,2-1.75h6h9h4h14h4h9h6C59.11,45.99,60,46.881,60,47.99z"/>
	<path fill="#656D78" d="M58.999,50.986H5.001c-0.553,0-1-0.447-1-1s0.447-1,1-1h53.998c0.553,0,1,0.447,1,1
		S59.552,50.986,58.999,50.986z"/>
</g>
</svg>
