<?xml version="1.0" encoding="utf-8"?>
<!-- Generator: Adobe Illustrator 16.0.0, SVG Export Plug-In . SVG Version: 6.00 Build 0)  -->
<!DOCTYPE svg PUBLIC "-//W3C//DTD SVG 1.1//EN" "http://www.w3.org/Graphics/SVG/1.1/DTD/svg11.dtd">
<svg version="1.1" id="icons" xmlns="http://www.w3.org/2000/svg" xmlns:xlink="http://www.w3.org/1999/xlink" x="0px" y="0px"
	 width="64px" height="64px" viewBox="0 0 64 64" enable-background="new 0 0 64 64" xml:space="preserve">
<g>
	<path fill="#F6BB42" d="M31.992,27.999c-0.553,0-1-0.448-1-1v-3c0-0.552,0.447-1,1-1s1,0.448,1,1v3
		C32.992,27.551,32.545,27.999,31.992,27.999z"/>
	<path fill="#F6BB42" d="M31.992,41c-0.553,0-1-0.447-1-1v-3.001c0-0.553,0.447-1,1-1s1,0.447,1,1V40
		C32.992,40.553,32.545,41,31.992,41z"/>
	<path fill="#F6BB42" d="M28.457,29.463c-0.256,0-0.512-0.098-0.707-0.293l-2.122-2.122c-0.391-0.391-0.391-1.023,0-1.414
		s1.023-0.391,1.414,0l2.122,2.122c0.391,0.391,0.391,1.023,0,1.414C28.969,29.366,28.713,29.463,28.457,29.463z"/>
	<path fill="#F6BB42" d="M37.649,38.656c-0.256,0-0.512-0.098-0.707-0.293l-2.122-2.122c-0.391-0.391-0.391-1.023,0-1.414
		s1.023-0.391,1.414,0l2.122,2.122c0.391,0.391,0.391,1.023,0,1.414C38.161,38.559,37.905,38.656,37.649,38.656z"/>
	<path fill="#F6BB42" d="M26.992,32.999h-3.001c-0.553,0-1-0.448-1-1s0.447-1,1-1h3.001c0.553,0,1,0.448,1,1
		S27.545,32.999,26.992,32.999z"/>
	<path fill="#F6BB42" d="M39.992,32.999h-3.001c-0.553,0-1-0.448-1-1s0.447-1,1-1h3.001c0.553,0,1,0.448,1,1
		S40.545,32.999,39.992,32.999z"/>
	<path fill="#F6BB42" d="M26.334,38.657c-0.256,0-0.512-0.098-0.707-0.293c-0.391-0.391-0.391-1.023,0-1.414l2.123-2.123
		c0.391-0.391,1.023-0.391,1.414,0s0.391,1.023,0,1.414l-2.123,2.123C26.846,38.56,26.59,38.657,26.334,38.657z"/>
	<path fill="#F6BB42" d="M35.527,29.463c-0.256,0-0.512-0.098-0.707-0.293c-0.391-0.391-0.391-1.023,0-1.414l2.121-2.121
		c0.391-0.391,1.023-0.391,1.414,0s0.391,1.023,0,1.414l-2.121,2.121C36.039,29.366,35.783,29.463,35.527,29.463z"/>
	<path fill="#5D9CEC" d="M11.489,11.488c-0.76,0.76-2,0.78-2.779,0.04c-0.021-0.01-0.03-0.02-0.051-0.04
		c-0.779-0.779-0.779-2.04,0-2.819c0.78-0.79,2.051-0.79,2.83,0c0.011,0.01,0.021,0.029,0.04,0.04
		C12.27,9.488,12.26,10.719,11.489,11.488z"/>
	<path fill="#E6E9ED" d="M43.909,22.898c-0.779,0.69-1.97,0.66-2.729-0.09c-0.75-0.75-0.78-1.95-0.08-2.73
		c0.02-0.04,0.05-0.069,0.08-0.1c0.79-0.78,2.05-0.78,2.83,0s0.78,2.05,0,2.83C43.979,22.839,43.949,22.868,43.909,22.898z"/>
	<path fill="#FFCE54" d="M35.529,28.469c0.9,0.91,1.46,2.149,1.46,3.529c0,2.761-2.239,5.001-5,5.001
		c-1.38,0-2.63-0.561-3.529-1.461c-0.91-0.908-1.471-2.158-1.471-3.54c0-1.38,0.561-2.619,1.471-3.529
		c0.89-0.91,2.149-1.471,3.529-1.471S34.63,27.559,35.529,28.469z"/>
	<path fill="#FC6E51" d="M33.989,54.919c0,0.029,0,0.051,0,0.08c0,1.109-0.89,2-2,2c-1.1,0-2-0.891-2-2c0-0.029,0-0.051,0-0.08
		c0.051-1.061,0.931-1.92,2-1.92C33.069,52.999,33.949,53.858,33.989,54.919z"/>
	<path fill="#CCD1D9" d="M31.991,63.984c-8.194,0-16.389-3.119-22.627-9.357C-2.544,42.72-3.163,23.5,7.954,10.874
		c0.366-0.415,0.997-0.454,1.412-0.09c0.414,0.365,0.454,0.997,0.09,1.411C-0.967,24.032-0.386,42.05,10.778,53.213
		C22.478,64.91,41.51,64.908,53.205,53.212c5.666-5.666,8.787-13.2,8.787-21.214c0-8.013-3.121-15.546-8.787-21.212
		C42.043-0.377,24.027-0.958,12.191,9.46c-0.415,0.365-1.046,0.326-1.412-0.09c-0.364-0.415-0.324-1.046,0.09-1.411
		C23.496-3.155,42.715-2.534,54.619,9.372c6.044,6.043,9.373,14.079,9.373,22.626c0,8.548-3.329,16.584-9.373,22.628
		C48.381,60.864,40.187,63.984,31.991,63.984z"/>
	<path fill="#CCD1D9" d="M33.989,55.914c-0.514,0-0.95-0.394-0.995-0.914c-0.048-0.551,0.36-1.035,0.91-1.082
		c11.265-0.971,20.088-10.599,20.088-21.919c0-12.131-9.869-22-22-22s-22,9.869-22,22c0,11.321,8.824,20.949,20.089,21.918
		c0.55,0.047,0.958,0.531,0.91,1.082c-0.048,0.549-0.521,0.966-1.082,0.91C17.619,54.852,7.992,44.349,7.992,31.999
		c0-13.233,10.767-24,24-24s24,10.767,24,24c0,12.35-9.627,22.853-21.916,23.912C34.047,55.913,34.018,55.914,33.989,55.914z"/>
	<path fill="#CCD1D9" d="M31.992,47.99c-4.098,0-8.194-1.56-11.313-4.679c-6.238-6.238-6.238-16.389,0-22.628
		c5.647-5.649,14.688-6.253,21.025-1.402c0.438,0.335,0.522,0.963,0.187,1.402c-0.334,0.438-0.964,0.523-1.401,0.186
		c-5.545-4.241-13.452-3.713-18.396,1.229c-5.458,5.459-5.458,14.342,0,19.8c5.459,5.459,14.34,5.459,19.799,0
		c4.944-4.944,5.472-12.854,1.229-18.397c-0.336-0.438-0.252-1.066,0.187-1.402c0.438-0.336,1.067-0.251,1.401,0.186
		c4.851,6.337,4.248,15.377-1.402,21.027C40.187,46.431,36.09,47.99,31.992,47.99z"/>
	<path fill="#FFCE54" d="M31.992,37.999c-3.309,0-6-2.691-6-6c0-3.309,2.691-6,6-6s6,2.691,6,6
		C37.992,35.308,35.301,37.999,31.992,37.999z M31.992,27.999c-2.206,0-4,1.794-4,4c0,2.207,1.794,4,4,4s4-1.794,4-4
		C35.992,29.793,34.198,27.999,31.992,27.999z"/>
	<path fill="#FC6E51" d="M31.992,57.999c-1.653,0-2.999-1.346-3.001-2.999c0.002-1.654,1.348-3,3-3.002
		c1.654,0.002,2.999,1.348,3.001,3C34.992,56.653,33.646,57.999,31.992,57.999z M31.991,53.998c-0.55,0-0.999,0.45-1,1.002
		c0.001,0.55,0.449,0.999,1.001,0.999s1-0.448,1-1C32.992,54.448,32.543,53.998,31.991,53.998z"/>
	<path fill="#E6E9ED" d="M42.599,24.391c-0.801,0-1.554-0.312-2.121-0.877c-1.168-1.171-1.168-3.074-0.001-4.244
		c1.138-1.136,3.111-1.133,4.243-0.001c1.169,1.169,1.17,3.072,0.002,4.243C44.153,24.08,43.4,24.391,42.599,24.391z M42.599,20.391
		c-0.267,0-0.519,0.104-0.707,0.292c-0.39,0.39-0.39,1.026,0,1.417c0.375,0.374,1.038,0.376,1.415-0.001
		c0.389-0.39,0.389-1.025-0.001-1.416C43.117,20.495,42.866,20.391,42.599,20.391z"/>
	<path fill="#5D9CEC" d="M10.072,13.077c-0.801,0-1.555-0.312-2.121-0.879c-1.169-1.169-1.169-3.072,0.001-4.242
		c1.134-1.135,3.11-1.133,4.242,0c0.566,0.566,0.878,1.319,0.879,2.121c0,0.801-0.313,1.555-0.879,2.122
		C11.628,12.765,10.874,13.077,10.072,13.077z M10.073,9.077c-0.267,0-0.518,0.104-0.707,0.293c-0.39,0.39-0.391,1.024-0.001,1.414
		c0.38,0.378,1.037,0.377,1.415,0c0.188-0.189,0.293-0.44,0.293-0.707S10.969,9.559,10.78,9.37
		C10.591,9.181,10.34,9.077,10.073,9.077z"/>
</g>
</svg>
