<?xml version="1.0" encoding="utf-8"?>
<!-- Generator: Adobe Illustrator 16.0.0, SVG Export Plug-In . SVG Version: 6.00 Build 0)  -->
<!DOCTYPE svg PUBLIC "-//W3C//DTD SVG 1.1//EN" "http://www.w3.org/Graphics/SVG/1.1/DTD/svg11.dtd">
<svg version="1.1" id="icons" xmlns="http://www.w3.org/2000/svg" xmlns:xlink="http://www.w3.org/1999/xlink" x="0px" y="0px"
	 width="64px" height="64px" viewBox="0 0 64 64" enable-background="new 0 0 64 64" xml:space="preserve">
<g>
	<g>
		<g>
			<g>
				<g>
					<path fill="#CCD1D9" d="M13,18.5H2.001c-0.553,0-1-0.447-1-1c0-0.552,0.447-1,1-1H13c0.553,0,1,0.448,1,1
						C14,18.053,13.553,18.5,13,18.5z"/>
				</g>
				<g>
					<path fill="#AAB2BD" d="M13,18.5H6.005c-0.553,0-1-0.447-1-1c0-0.552,0.447-1,1-1H13c0.553,0,1,0.448,1,1
						C14,18.053,13.553,18.5,13,18.5z"/>
				</g>
				<g>
					<path fill="#CCD1D9" d="M57.995,6.5H13.997c-0.553,0-1-0.447-1-1c0-0.552,0.447-1,1-1h43.998c0.553,0,1,0.448,1,1
						C58.995,6.053,58.548,6.5,57.995,6.5z"/>
				</g>
				<path fill="#E6E9ED" d="M17,5.5v46c0,4.42-3.58,8-8,8h46c4.42,0,8-3.58,8-8v-46H17z"/>
				<path fill="#AAB2BD" d="M13,17.5v34c0,2.21-1.79,4-4,4s-4-1.79-4-4v-34H13z"/>
				<path fill="#CCD1D9" d="M17,5.5v46c0,4.42-3.58,8-8,8s-8-3.58-8-8v-34h4v34c0,2.21,1.79,4,4,4s4-1.79,4-4v-35v-11H17z"/>
				<g>
					<path fill="#E6E9ED" d="M61.999,6.5H18.001c-0.553,0-1-0.447-1-1c0-0.552,0.447-1,1-1h43.998c0.553,0,1,0.448,1,1
						C62.999,6.053,62.552,6.5,61.999,6.5z"/>
				</g>
			</g>
			<g>
				<g>
					<rect x="22" y="10.49" fill="#656D78" width="36" height="2.999"/>
				</g>
				<path fill="#656D78" d="M58,14.495H22c-0.553,0-1-0.447-1-1v-2.999c0-0.553,0.447-1,1-1h36c0.553,0,1,0.447,1,1v2.999
					C59,14.048,58.553,14.495,58,14.495z M23,13.496h34v-2H23V13.496z"/>
			</g>
			<path fill="#FFFFFF" d="M58,44.524H22c-0.553,0-1-0.447-1-1s0.447-1,1-1h36c0.553,0,1,0.447,1,1S58.553,44.524,58,44.524z"/>
			<path fill="#CCD1D9" d="M38,49.495H22c-0.553,0-1-0.447-1-1s0.447-1,1-1h16c0.553,0,1,0.447,1,1S38.553,49.495,38,49.495z"/>
			<path fill="#CCD1D9" d="M58.02,49.495h-16c-0.553,0-1-0.447-1-1s0.447-1,1-1h16c0.553,0,1,0.447,1,1S58.572,49.495,58.02,49.495z
				"/>
			<path fill="#CCD1D9" d="M38,52.495H22c-0.553,0-1-0.447-1-1s0.447-1,1-1h16c0.553,0,1,0.447,1,1S38.553,52.495,38,52.495z"/>
			<path fill="#CCD1D9" d="M58.02,52.495h-16c-0.553,0-1-0.447-1-1s0.447-1,1-1h16c0.553,0,1,0.447,1,1S58.572,52.495,58.02,52.495z
				"/>
			<path fill="#CCD1D9" d="M29.989,55.495H22c-0.553,0-1-0.447-1-1s0.447-1,1-1h7.989c0.553,0,1,0.447,1,1
				S30.542,55.495,29.989,55.495z"/>
			<path fill="#CCD1D9" d="M50.009,55.495H42.02c-0.553,0-1-0.447-1-1s0.447-1,1-1h7.989c0.553,0,1,0.447,1,1
				S50.562,55.495,50.009,55.495z"/>
		</g>
		<path fill="#CCD1D9" d="M58,20.492H41.998c-0.553,0-1-0.447-1-1s0.447-1,1-1H58c0.553,0,1,0.447,1,1S58.553,20.492,58,20.492z"/>
		<path fill="#CCD1D9" d="M58,23.495H41.998c-0.553,0-1-0.447-1-1s0.447-1,1-1H58c0.553,0,1,0.447,1,1S58.553,23.495,58,23.495z"/>
		<path fill="#CCD1D9" d="M58,26.498H41.998c-0.553,0-1-0.447-1-1s0.447-1,1-1H58c0.553,0,1,0.447,1,1S58.553,26.498,58,26.498z"/>
		<path fill="#CCD1D9" d="M58,29.501H41.998c-0.553,0-1-0.447-1-1s0.447-1,1-1H58c0.553,0,1,0.447,1,1S58.553,29.501,58,29.501z"/>
		<path fill="#CCD1D9" d="M58,32.504H41.998c-0.553,0-1-0.447-1-1s0.447-1,1-1H58c0.553,0,1,0.447,1,1S58.553,32.504,58,32.504z"/>
		<path fill="#CCD1D9" d="M58,35.507H41.998c-0.553,0-1-0.447-1-1s0.447-1,1-1H58c0.553,0,1,0.447,1,1S58.553,35.507,58,35.507z"/>
		<path fill="#CCD1D9" d="M49.992,38.51h-7.994c-0.553,0-1-0.447-1-1s0.447-1,1-1h7.994c0.553,0,1,0.447,1,1
			S50.545,38.51,49.992,38.51z"/>
	</g>
	<g>
		<polygon fill="#ED5565" points="26.97,30.53 26.97,35.53 21.97,35.53 21.97,33.53 		"/>
	</g>
	<g>
		<path fill="#ED5565" d="M32.97,22.11v0.42h-5.921H26.97v-0.42c0-2.051,1.229-3.811,3-4.58C31.729,18.3,32.97,20.06,32.97,22.11z"
			/>
	</g>
	<g>
		<polygon fill="#ED5565" points="37.97,33.53 37.97,35.53 32.97,35.53 32.97,30.53 		"/>
	</g>
	<g>
		<path fill="#ED5565" d="M37.97,34.526c-0.175,0-0.353-0.046-0.514-0.143l-5.001-3.001c-0.474-0.284-0.627-0.898-0.343-1.372
			s0.898-0.627,1.372-0.343l5.001,3.001c0.474,0.284,0.627,0.898,0.343,1.372C38.641,34.354,38.31,34.526,37.97,34.526z"/>
	</g>
	<g>
		<path fill="#ED5565" d="M37.971,36.527c-0.553,0-1-0.447-1-1v-2.001c0-0.553,0.447-1,1-1s1,0.447,1,1v2.001
			C38.971,36.08,38.523,36.527,37.971,36.527z"/>
	</g>
	<g>
		<path fill="#ED5565" d="M37.971,36.527H32.97c-0.553,0-1-0.447-1-1s0.447-1,1-1h5.001c0.553,0,1,0.447,1,1
			S38.523,36.527,37.971,36.527z"/>
	</g>
	<g>
		<path fill="#ED5565" d="M21.97,34.526c-0.34,0-0.671-0.173-0.858-0.485c-0.284-0.474-0.131-1.088,0.343-1.372l5.001-3.001
			c0.475-0.284,1.089-0.131,1.372,0.343c0.284,0.474,0.131,1.088-0.343,1.372l-5.001,3.001C22.322,34.48,22.145,34.526,21.97,34.526
			z"/>
	</g>
	<g>
		<path fill="#ED5565" d="M21.969,36.527c-0.553,0-1-0.447-1-1v-2.001c0-0.553,0.447-1,1-1s1,0.447,1,1v2.001
			C22.969,36.08,22.521,36.527,21.969,36.527z"/>
	</g>
	<g>
		<path fill="#ED5565" d="M26.97,36.527h-5.001c-0.553,0-1-0.447-1-1s0.447-1,1-1h5.001c0.553,0,1,0.447,1,1
			S27.522,36.527,26.97,36.527z"/>
	</g>
	<g>
		<polygon fill="#FFFFFF" points="32.97,31.531 32.97,36.531 29.97,36.531 26.97,36.531 26.97,31.531 26.97,22.53 27.049,22.53 
			32.97,22.53 		"/>
	</g>
	<path fill="#656D78" d="M26.97,36.53v2.001c0,0.55,0.45,1,1,1h4c0.55,0,1-0.45,1-1V36.53H26.97z"/>
	<g>
		<path fill="#ED5565" d="M29.97,36.526c-0.553,0-1-0.447-1-1v-5.001c0-0.553,0.447-1,1-1s1,0.447,1,1v5.001
			C30.97,36.079,30.522,36.526,29.97,36.526z"/>
	</g>
</g>
</svg>
