<?xml version="1.0" encoding="utf-8"?>
<!-- Generator: Adobe Illustrator 16.0.0, SVG Export Plug-In . SVG Version: 6.00 Build 0)  -->
<!DOCTYPE svg PUBLIC "-//W3C//DTD SVG 1.1//EN" "http://www.w3.org/Graphics/SVG/1.1/DTD/svg11.dtd">
<svg version="1.1" id="icons" xmlns="http://www.w3.org/2000/svg" xmlns:xlink="http://www.w3.org/1999/xlink" x="0px" y="0px"
	 width="64px" height="64px" viewBox="0 0 64 64" enable-background="new 0 0 64 64" xml:space="preserve">
<g>
	<path fill="#545C66" d="M46.117,27.383c-0.256,0-0.512-0.098-0.707-0.293c-0.391-0.391-0.391-1.023,0-1.414l13.897-13.898
		c0.391-0.391,1.023-0.391,1.414,0s0.391,1.023,0,1.414L46.824,27.09C46.629,27.285,46.373,27.383,46.117,27.383z"/>
	<path fill="#545C66" d="M59.999,34.5C59.999,34.5,59.999,34.5,59.999,34.5c-0.553,0-1-0.448-1-1.001l0.016-21.016
		c0-0.552,0.448-0.999,1-0.999h0.001c0.552,0,0.999,0.448,0.999,1.001l-0.016,21.016C60.999,34.053,60.551,34.5,59.999,34.5z"/>
	<path fill="#656D78" d="M43.991,25.498c0.83,0,1.59,0.34,2.13,0.89s0.87,1.28,0.87,2.11v0.01h-6v-0.01
		C40.991,26.848,42.331,25.498,43.991,25.498z"/>
	<path fill="#656D78" d="M46.992,29.5c-0.553,0-1-0.447-1-1c0-1.104-0.897-2.002-2.001-2.002S41.99,27.396,41.99,28.5
		c0,0.553-0.447,1-1,1s-1-0.447-1-1c0-2.207,1.795-4.002,4.001-4.002s4.001,1.795,4.001,4.002
		C47.992,29.053,47.545,29.5,46.992,29.5z"/>
	<path fill="#AAB2BD" d="M19.01,25.513c-0.553,0-1-0.447-1-1v-6c0-0.553,0.447-1,1-1s1,0.447,1,1v6
		C20.01,25.065,19.563,25.513,19.01,25.513z"/>
	<path fill="#AAB2BD" d="M16,25.513c-0.553,0-1-0.447-1-1v-6c0-0.553,0.447-1,1-1s1,0.447,1,1v6C17,25.065,16.553,25.513,16,25.513z
		"/>
	<rect x="9.001" y="21.509" fill="#545C66" width="4" height="3"/>
	<polygon fill="#656D78" points="21.001,24.509 21.001,29.509 9.001,29.509 9.001,24.509 13.001,24.509 16.001,24.509 
		19.011,24.509 	"/>
	<path fill="#545C66" d="M13,25.507H9c-0.553,0-1-0.447-1-1v-2.998c0-0.553,0.447-1,1-1h4c0.553,0,1,0.447,1,1v2.998
		C14,25.06,13.553,25.507,13,25.507z M10,23.507h2v-0.998h-2V23.507z"/>
	<path fill="#656D78" d="M21,30.503H9c-0.553,0-1-0.447-1-1v-4.996c0-0.553,0.447-1,1-1h12c0.553,0,1,0.447,1,1v4.996
		C22,30.056,21.553,30.503,21,30.503z M10,28.503h10v-2.996H10V28.503z"/>
	<path fill="#AAB2BD" d="M31.003,30.501c-0.553,0-1-0.447-1-1V16.503c0-0.553,0.447-1,1-1s1,0.447,1,1v12.998
		C32.003,30.054,31.556,30.501,31.003,30.501z"/>
	<path fill="#545C66" d="M24.001,5.489h14v8h-4h-6h-4V5.489z M31.001,11.499c1.11,0,2-0.891,2-2c0-1.101-0.89-2-2-2
		c-1.1,0-2,0.899-2,2C29.001,10.608,29.901,11.499,31.001,11.499z"/>
	<path fill="#656D78" d="M51.991,52.511c0-1.66-1.34-3-3-3c-1.65,0-3,1.34-3,3c0,1.65,1.35,3,3,3
		C50.651,55.511,51.991,54.161,51.991,52.511z M48.991,46.511c3.319,0,6,2.69,6,6s-2.681,6-6,6c-3.311,0-6-2.69-6-6
		S45.681,46.511,48.991,46.511z"/>
	<polygon fill="#CCD1D9" points="21.001,29.509 40.991,29.509 46.991,29.509 46.991,41.509 9.001,41.509 9.001,38.509 9.001,35.509 
		9.001,32.509 9.001,29.509 	"/>
	<path fill="#656D78" d="M31.001,52.511c0-1.66-1.35-3-3-3c-1.66,0-3,1.34-3,3c0,1.65,1.34,3,3,3
		C29.651,55.511,31.001,54.161,31.001,52.511z M28.001,46.511c3.31,0,6,2.69,6,6s-2.69,6-6,6c-3.32,0-6-2.69-6-6
		S24.681,46.511,28.001,46.511z"/>
	<path fill="#434A54" d="M28.001,13.489h6v0.01c0,1.66-1.34,3.01-3,3.01c-1.65,0-3-1.35-3-3.01V13.489z"/>
	<polygon fill="#E6E9ED" points="48.991,41.509 48.991,44.509 28.001,44.509 7.001,44.509 7.001,41.509 9.001,41.509 46.991,41.509 
			"/>
	<path fill="#656D78" d="M10.001,52.511c0-1.66-1.34-3-3-3s-3,1.34-3,3c0,1.65,1.34,3,3,3S10.001,54.161,10.001,52.511z
		 M7.001,46.511c3.31,0,6,2.69,6,6s-2.69,6-6,6s-6-2.69-6-6S3.691,46.511,7.001,46.511z"/>
	<path fill="#CCD1D9" d="M46.992,42.507H9c-0.553,0-1-0.447-1-1V29.503c0-0.553,0.447-1,1-1h37.992c0.553,0,1,0.447,1,1v12.004
		C47.992,42.06,47.545,42.507,46.992,42.507z M10,40.507h35.992V30.503H10V40.507z"/>
	<path fill="#656D78" d="M7,59.509c-3.859,0-7-3.141-7-7s3.141-7,7-7s7,3.141,7,7S10.859,59.509,7,59.509z M7,47.509
		c-2.757,0-5,2.243-5,5s2.243,5,5,5s5-2.243,5-5S9.757,47.509,7,47.509z"/>
	<path fill="#656D78" d="M27.996,59.509c-3.859,0-7-3.141-7-7s3.141-7,7-7s7,3.141,7,7S31.855,59.509,27.996,59.509z M27.996,47.509
		c-2.757,0-5,2.243-5,5s2.243,5,5,5s5-2.243,5-5S30.753,47.509,27.996,47.509z"/>
	<path fill="#656D78" d="M48.992,59.509c-3.859,0-7-3.141-7-7s3.141-7,7-7s7,3.141,7,7S52.852,59.509,48.992,59.509z M48.992,47.509
		c-2.757,0-5,2.243-5,5s2.243,5,5,5s5-2.243,5-5S51.749,47.509,48.992,47.509z"/>
	<path fill="#E6E9ED" d="M48.992,45.507H7c-0.553,0-1-0.447-1-1v-2.998c0-0.553,0.447-1,1-1h41.992c0.553,0,1,0.447,1,1v2.998
		C49.992,45.06,49.545,45.507,48.992,45.507z M8,43.507h39.992v-0.998H8V43.507z"/>
	<path fill="#434A54" d="M31.003,17.503c-2.206,0-4.001-1.795-4.001-4.002c0-0.553,0.447-1,1-1s1,0.447,1,1
		c0,1.104,0.897,2.002,2.001,2.002s2.001-0.898,2.001-2.002c0-0.553,0.447-1,1-1s1,0.447,1,1
		C35.004,15.708,33.209,17.503,31.003,17.503z"/>
	<path fill="#CCD1D9" d="M62.999,37.5c-0.553,0-1-0.447-1-1c0-1.103-0.897-2-2-2s-2,0.897-2,2c0,0.553-0.447,1-1,1s-1-0.447-1-1
		c0-2.206,1.794-4,4-4s4,1.794,4,4C63.999,37.053,63.552,37.5,62.999,37.5z"/>
	<path fill="#CCD1D9" d="M57,41.508c-0.553,0-1-0.447-1-1V36.5c0-0.553,0.447-1,1-1s1,0.447,1,1v4.008
		C58,41.061,57.553,41.508,57,41.508z"/>
	<path fill="#CCD1D9" d="M63,41.508c-0.553,0-1-0.447-1-1V36.5c0-0.553,0.447-1,1-1s1,0.447,1,1v4.008
		C64,41.061,63.553,41.508,63,41.508z"/>
	<path fill="#CCD1D9" d="M58,41.508h-1c-0.553,0-1-0.447-1-1s0.447-1,1-1h1c0.553,0,1,0.447,1,1S58.553,41.508,58,41.508z"/>
	<path fill="#CCD1D9" d="M63,41.508h-1c-0.553,0-1-0.447-1-1s0.447-1,1-1h1c0.553,0,1,0.447,1,1S63.553,41.508,63,41.508z"/>
	<g>
		<path fill="#AAB2BD" d="M21.004,30.504H7.999v2h13.005c0.553,0,1-0.447,1-1S21.557,30.504,21.004,30.504z"/>
		<path fill="#AAB2BD" d="M18.001,33.506H7.999v2h10.002c0.553,0,1-0.447,1-1S18.554,33.506,18.001,33.506z"/>
		<path fill="#AAB2BD" d="M14.998,36.508H7.999v2h6.999c0.553,0,1-0.447,1-1S15.551,36.508,14.998,36.508z"/>
	</g>
	<path fill="#545C66" d="M38.005,14.487H24.001c-0.553,0-1-0.447-1-1V5.491c0-0.553,0.447-1,1-1h14.004c0.553,0,1,0.447,1,1v7.996
		C39.005,14.04,38.558,14.487,38.005,14.487z M25.001,12.487h12.004V6.491H25.001V12.487z"/>
	<path fill="#656D78" d="M31.003,12.501c-1.654,0-3-1.346-3-3s1.346-3,3-3s3,1.346,3,3S32.657,12.501,31.003,12.501z M31.003,8.501
		c-0.552,0-1,0.448-1,1s0.448,1,1,1s1-0.448,1-1S31.555,8.501,31.003,8.501z"/>
	<path fill="#ED5565" d="M43.039,34.505c-0.553,0-1.005-0.447-1.005-1s0.442-1,0.994-1h0.011c0.552,0,1,0.447,1,1
		S43.591,34.505,43.039,34.505z"/>
	<path fill="#ED5565" d="M43.039,38.507c-0.553,0-1.005-0.447-1.005-1s0.442-1,0.994-1h0.011c0.552,0,1,0.447,1,1
		S43.591,38.507,43.039,38.507z"/>
	<path fill="#5D9CEC" d="M31.001,7.499c1.11,0,2,0.899,2,2c0,1.109-0.89,2-2,2c-1.1,0-2-0.891-2-2
		C29.001,8.398,29.901,7.499,31.001,7.499z"/>
	<path fill="#CCD1D9" d="M48.991,49.011c1.937,0,3.5,1.563,3.5,3.5c0,1.926-1.563,3.5-3.5,3.5c-1.926,0-3.5-1.574-3.5-3.5
		C45.491,50.574,47.065,49.011,48.991,49.011z"/>
	<path fill="#CCD1D9" d="M28.001,49.011c1.926,0,3.5,1.563,3.5,3.5c0,1.926-1.574,3.5-3.5,3.5c-1.937,0-3.5-1.574-3.5-3.5
		C24.501,50.574,26.064,49.011,28.001,49.011z"/>
	<path fill="#CCD1D9" d="M7.001,49.011c1.937,0,3.5,1.563,3.5,3.5c0,1.926-1.563,3.5-3.5,3.5s-3.5-1.574-3.5-3.5
		C3.501,50.574,5.064,49.011,7.001,49.011z"/>
</g>
</svg>
